<svg width="110" height="102" viewBox="0 0 110 102" fill="none" xmlns="http://www.w3.org/2000/svg">
<g clip-path="url(#clip0_47_5)">
<rect width="110" height="102" fill="white"/>
<path d="M65.5981 66.5018C68.2648 66.5018 79.2 65.4018 80 61.0018C80.8 56.6018 82.4314 40.8333 82.0981 39C81.5981 36.1667 68.3 28 59.5 28C50.7 28 36.9314 46 36.5981 51V76C36.4314 78.8333 50.5 91.6 60.5 90C73 88 97 80 98 70C99 60 97 34.5 90 26C84.4 19.2 62.5 15.1667 54.5 14.5C51.1667 14.3333 38 22 30 34C20 49 13.5 58.5018 15.5 66.5018C17.5 74.5018 27 100.5 40.5 99.5C54 98.5 69 102 78.5 99.5C88 97 104 89.5 106 76C108 62.5 109 9.5 86.5 5C64 0.499999 36.5 -4.5 19.5 11C2.5 26.5 -0.499996 50.4982 7.5 68.9982C13.9 83.7982 48.5981 60.8333 65.5981 56.5" stroke="black"/>
</g>
<defs>
<clipPath id="clip0_47_5">
<rect width="110" height="102" fill="white"/>
</clipPath>
</defs>
</svg>
