<svg width="107" height="102" viewBox="0 0 107 102" fill="none" xmlns="http://www.w3.org/2000/svg">
<rect width="107" height="102" fill="white"/>
<path d="M65.5981 66.5018C68.2648 66.5018 73.7981 65.4018 74.5981 61.0018C75.3981 56.6018 74.9314 51.8351 74.5981 50.0018C74.0981 47.1685 70.8981 41.5018 62.0981 41.5018C53.2981 41.5018 50.4314 51.5018 50.0981 56.5018V73.0018C49.9314 75.8351 52.0981 81.1018 62.0981 79.5018C74.5981 77.5018 86.5981 76.5018 87.5981 66.5018C88.5981 56.5018 94.5981 39.5018 87.5981 31.0018C81.9981 24.2018 64.5981 21.1685 56.5981 20.5018C53.2648 20.3351 44.5981 23.0018 36.5981 35.0018C26.5981 50.0018 25.0981 58.5018 27.0981 66.5018C29.0981 74.5018 23.0981 98.0018 36.5981 97.0018C50.0981 96.0018 59.5981 99.5018 69.0981 97.0018C78.5981 94.5018 100.598 86.5018 102.598 73.0018C104.598 59.5018 104.598 16.5018 82.0981 12.0018C59.5981 7.50182 42.0981 -3.49818 25.0981 12.0018C8.09811 27.5018 -3.40189 42.5018 4.59811 61.0018C10.9981 75.8018 46.5981 70.8351 63.5981 66.5018" stroke="black"/>
</svg>
