<svg width="145" height="131" viewBox="0 0 145 131" fill="none" xmlns="http://www.w3.org/2000/svg">
<rect width="145" height="131" fill="white"/>
<path d="M72.5 75.5065C75.1667 75.5065 103.7 87.4 104.5 83C105.3 78.6 116.833 54.3333 116.5 52.5C116 49.6667 97.8 30 89 30C80.2 30 36.8333 31 36.5 36L11 102.5C10.8333 105.333 50 124.1 60 122.5C72.5 120.5 128 124.5 129 114.5C130 104.5 140.5 41 133.5 32.5C127.9 25.7 95 11.1667 87 10.5C83.6667 10.3333 28.5 8.5 20.5 20.5C10.5 35.5 6 67.5065 8 75.5065C10 83.5065 63.7292 72.5 77.2292 71.5" stroke="black"/>
</svg>
